<?xml version="1.0" encoding="UTF-8"?>
<svg xmlns="http://www.w3.org/2000/svg" xmlns:xlink="http://www.w3.org/1999/xlink" viewBox="0 0 96 96" width="96px" height="96px">
<g id="surface65571413">
<path style=" stroke:none;fill-rule:nonzero;fill:rgb(100%,100%,100%);fill-opacity:1;" d="M 96 17.203125 C 92.40625 18.796875 88.796875 20 84.796875 20.40625 C 88.796875 18 92 14 93.59375 9.59375 C 89.59375 12 85.59375 13.59375 81.203125 14.40625 C 77.203125 10.40625 72 8 66.40625 8 C 55.59375 8 46.796875 16.796875 46.796875 27.59375 C 46.796875 29.203125 46.796875 30.796875 47.203125 32 C 30.796875 31.203125 16.40625 23.59375 6.796875 11.59375 C 4.796875 14.40625 4 18 4 21.59375 C 4 28.40625 7.59375 34.40625 12.796875 38 C 9.59375 37.59375 6.40625 36.796875 4 35.59375 C 4 35.59375 4 35.59375 4 36 C 4 45.59375 10.796875 53.59375 19.59375 55.203125 C 18 55.59375 16.40625 56 14.40625 56 C 13.203125 56 12 56 10.796875 55.59375 C 13.203125 63.59375 20.40625 69.203125 29.203125 69.203125 C 22.40625 74.40625 14 77.59375 4.796875 77.59375 C 3.203125 77.59375 1.59375 77.59375 0 77.203125 C 8.796875 82.796875 19.203125 86 30 86 C 66.40625 86 86 56 86 30 C 86 29.203125 86 28.40625 86 27.59375 C 90 24.796875 93.203125 21.203125 96 17.203125 "/>
</g>
</svg>
